<svg width="104" height="120" viewBox="0 0 104 120" fill="none" xmlns="http://www.w3.org/2000/svg">
<g opacity="0.4" clip-path="url(#clip0_4028_94945)">
<path d="M34.3571 66.9783H25.0714C23.5393 66.9783 22.2857 65.7224 22.2857 64.1875V54.885C22.2857 53.35 23.5393 52.0942 25.0714 52.0942H34.3571C35.8893 52.0942 37.1429 53.35 37.1429 54.885V64.1875C37.1429 65.7224 35.8893 66.9783 34.3571 66.9783ZM59.4286 64.1875V54.885C59.4286 53.35 58.175 52.0942 56.6429 52.0942H47.3571C45.825 52.0942 44.5714 53.35 44.5714 54.885V64.1875C44.5714 65.7224 45.825 66.9783 47.3571 66.9783H56.6429C58.175 66.9783 59.4286 65.7224 59.4286 64.1875ZM81.7143 64.1875V54.885C81.7143 53.35 80.4607 52.0942 78.9286 52.0942H69.6429C68.1107 52.0942 66.8571 53.35 66.8571 54.885V64.1875C66.8571 65.7224 68.1107 66.9783 69.6429 66.9783H78.9286C80.4607 66.9783 81.7143 65.7224 81.7143 64.1875ZM59.4286 86.5136V77.2111C59.4286 75.6761 58.175 74.4203 56.6429 74.4203H47.3571C45.825 74.4203 44.5714 75.6761 44.5714 77.2111V86.5136C44.5714 88.0485 45.825 89.3043 47.3571 89.3043H56.6429C58.175 89.3043 59.4286 88.0485 59.4286 86.5136ZM37.1429 86.5136V77.2111C37.1429 75.6761 35.8893 74.4203 34.3571 74.4203H25.0714C23.5393 74.4203 22.2857 75.6761 22.2857 77.2111V86.5136C22.2857 88.0485 23.5393 89.3043 25.0714 89.3043H34.3571C35.8893 89.3043 37.1429 88.0485 37.1429 86.5136ZM81.7143 86.5136V77.2111C81.7143 75.6761 80.4607 74.4203 78.9286 74.4203H69.6429C68.1107 74.4203 66.8571 75.6761 66.8571 77.2111V86.5136C66.8571 88.0485 68.1107 89.3043 69.6429 89.3043H78.9286C80.4607 89.3043 81.7143 88.0485 81.7143 86.5136ZM104 26.0471V107.909C104 114.072 99.0089 119.072 92.8571 119.072H11.1429C4.99107 119.072 0 114.072 0 107.909V26.0471C0 19.8842 4.99107 14.8841 11.1429 14.8841H22.2857V2.79076C22.2857 1.25584 23.5393 0 25.0714 0H34.3571C35.8893 0 37.1429 1.25584 37.1429 2.79076V14.8841H66.8571V2.79076C66.8571 1.25584 68.1107 0 69.6429 0H78.9286C80.4607 0 81.7143 1.25584 81.7143 2.79076V14.8841H92.8571C99.0089 14.8841 104 19.8842 104 26.0471ZM92.8571 106.514V37.2101H11.1429V106.514C11.1429 107.281 11.7696 107.909 12.5357 107.909H91.4643C92.2304 107.909 92.8571 107.281 92.8571 106.514Z" fill="#A9A9A9"/>
</g>
<defs>
<clipPath id="clip0_4028_94945">
<rect width="104" height="119.072" fill="white"/>
</clipPath>
</defs>
</svg>
