<svg width="49" height="49" viewBox="0 0 49 49" fill="none" xmlns="http://www.w3.org/2000/svg">
<path d="M46.3699 21.3614V9.78849C46.1102 8.27732 45.3238 6.90912 44.1512 5.92678C42.9789 4.94598 41.4971 4.41562 39.971 4.43099L8.36369 4.52627C8.36369 4.52627 2 4.64467 2 10.2143V39.577C2 39.577 2.21269 45.1497 6.69283 45.1497H22.052" stroke="#BFBFBF" stroke-width="3" stroke-miterlimit="10"/>
<mask id="path-2-inside-1_2267_111582" fill="white">
<path d="M11.9218 1.2124C11.392 1.2124 10.9609 1.64441 10.9609 2.17632V7.32167C10.9609 7.85358 11.3904 8.28559 11.9203 8.28559C12.4502 8.28559 12.8812 7.85358 12.8812 7.32167V2.17632C12.8812 1.64441 12.4517 1.2124 11.9218 1.2124Z"/>
</mask>
<path d="M11.9218 1.2124C11.392 1.2124 10.9609 1.64441 10.9609 2.17632V7.32167C10.9609 7.85358 11.3904 8.28559 11.9203 8.28559C12.4502 8.28559 12.8812 7.85358 12.8812 7.32167V2.17632C12.8812 1.64441 12.4517 1.2124 11.9218 1.2124Z" fill="#BFBFBF"/>
<path d="M11.9218 -1.7876C9.72699 -1.7876 7.96094 -0.00431662 7.96094 2.17632H13.9609C13.9609 3.29313 13.0569 4.2124 11.9218 4.2124V-1.7876ZM7.96094 2.17632V7.32167H13.9609V2.17632H7.96094ZM7.96094 7.32167C7.96094 9.49607 9.71925 11.2856 11.9203 11.2856V5.28559C13.0616 5.28559 13.9609 6.21109 13.9609 7.32167H7.96094ZM11.9203 11.2856C14.1151 11.2856 15.8812 9.50231 15.8812 7.32167H9.8812C9.8812 6.20486 10.7852 5.28559 11.9203 5.28559V11.2856ZM15.8812 7.32167V2.17632H9.8812V7.32167H15.8812ZM15.8812 2.17632C15.8812 0.00191725 14.1229 -1.7876 11.9218 -1.7876V4.2124C10.7805 4.2124 9.8812 3.2869 9.8812 2.17632H15.8812Z" fill="#BFBFBF" mask="url(#path-2-inside-1_2267_111582)"/>
<mask id="path-4-inside-2_2267_111582" fill="white">
<path d="M24.0781 1.2124H24.0766C23.5467 1.2124 23.1172 1.64441 23.1172 2.17632V7.32167C23.1172 7.85358 23.5467 8.28559 24.0766 8.28559H24.0781C24.608 8.28559 25.0375 7.85358 25.0375 7.32167V2.17632C25.0375 1.64441 24.608 1.2124 24.0781 1.2124Z"/>
</mask>
<path d="M24.0781 1.2124H24.0766C23.5467 1.2124 23.1172 1.64441 23.1172 2.17632V7.32167C23.1172 7.85358 23.5467 8.28559 24.0766 8.28559H24.0781C24.608 8.28559 25.0375 7.85358 25.0375 7.32167V2.17632C25.0375 1.64441 24.608 1.2124 24.0781 1.2124Z" fill="#BFBFBF"/>
<path d="M24.0781 -1.7876H24.0766V4.2124H24.0781V-1.7876ZM24.0766 -1.7876C21.8755 -1.7876 20.1172 0.00190206 20.1172 2.17632H26.1172C26.1172 3.28691 25.2179 4.2124 24.0766 4.2124V-1.7876ZM20.1172 2.17632V7.32167H26.1172V2.17632H20.1172ZM20.1172 7.32167C20.1172 9.49609 21.8755 11.2856 24.0766 11.2856V5.28559C25.2179 5.28559 26.1172 6.21108 26.1172 7.32167H20.1172ZM24.0766 11.2856H24.0781V5.28559H24.0766V11.2856ZM24.0781 11.2856C26.2791 11.2856 28.0375 9.49609 28.0375 7.32167H22.0375C22.0375 6.21108 22.9368 5.28559 24.0781 5.28559V11.2856ZM28.0375 7.32167V2.17632H22.0375V7.32167H28.0375ZM28.0375 2.17632C28.0375 0.00190206 26.2791 -1.7876 24.0781 -1.7876V4.2124C22.9368 4.2124 22.0375 3.28691 22.0375 2.17632H28.0375Z" fill="#BFBFBF" mask="url(#path-4-inside-2_2267_111582)"/>
<mask id="path-6-inside-3_2267_111582" fill="white">
<path d="M36.4453 1H36.4437C35.914 1 35.4844 1.43201 35.4844 1.96392V7.10927C35.4844 7.64118 35.914 8.07319 36.4437 8.07319H36.4453C36.9751 8.07319 37.4046 7.64118 37.4046 7.10927V1.96392C37.4046 1.43201 36.9751 1 36.4453 1Z"/>
</mask>
<path d="M36.4453 1H36.4437C35.914 1 35.4844 1.43201 35.4844 1.96392V7.10927C35.4844 7.64118 35.914 8.07319 36.4437 8.07319H36.4453C36.9751 8.07319 37.4046 7.64118 37.4046 7.10927V1.96392C37.4046 1.43201 36.9751 1 36.4453 1Z" fill="#BFBFBF"/>
<path d="M36.4453 -2H36.4437V4H36.4453V-2ZM36.4437 -2C34.2432 -2 32.4844 -0.210813 32.4844 1.96392H38.4844C38.4844 3.07482 37.5849 4 36.4437 4V-2ZM32.4844 1.96392V7.10927H38.4844V1.96392H32.4844ZM32.4844 7.10927C32.4844 9.284 34.2432 11.0732 36.4437 11.0732V5.07319C37.5849 5.07319 38.4844 5.99836 38.4844 7.10927H32.4844ZM36.4437 11.0732H36.4453V5.07319H36.4437V11.0732ZM36.4453 11.0732C38.6463 11.0732 40.4046 9.28369 40.4046 7.10927H34.4046C34.4046 5.99867 35.304 5.07319 36.4453 5.07319V11.0732ZM40.4046 7.10927V1.96392H34.4046V7.10927H40.4046ZM40.4046 1.96392C40.4046 -0.2105 38.6463 -2 36.4453 -2V4C35.304 4 34.4046 3.07451 34.4046 1.96392H40.4046Z" fill="#BFBFBF" mask="url(#path-6-inside-3_2267_111582)"/>
<path d="M12.0215 18.7878C12.0215 18.9128 11.9228 19.0019 11.8154 19.0019C11.7081 19.0019 11.6094 18.9128 11.6094 18.7878C11.6094 18.6629 11.7081 18.5738 11.8154 18.5738C11.9228 18.5738 12.0215 18.6629 12.0215 18.7878Z" fill="#BFBFBF" stroke="#BFBFBF" stroke-width="3"/>
<path d="M12.0215 26.931C12.0215 27.056 11.9228 27.1451 11.8154 27.1451C11.7081 27.1451 11.6094 27.056 11.6094 26.931C11.6094 26.806 11.7081 26.7169 11.8154 26.7169C11.9228 26.7169 12.0215 26.8059 12.0215 26.931Z" fill="#BFBFBF" stroke="#BFBFBF" stroke-width="3"/>
<path d="M12.0215 35.0766C12.0215 35.2016 11.9228 35.2907 11.8154 35.2907C11.7081 35.2907 11.6094 35.2016 11.6094 35.0766C11.6094 34.9516 11.7081 34.8625 11.8154 34.8625C11.9228 34.8625 12.0215 34.9516 12.0215 35.0766Z" fill="#BFBFBF" stroke="#BFBFBF" stroke-width="3"/>
<path d="M20.1152 35.0766C20.1152 35.2016 20.0165 35.2907 19.9092 35.2907C19.8018 35.2907 19.7031 35.2016 19.7031 35.0766C19.7031 34.9516 19.8018 34.8625 19.9092 34.8625C20.0165 34.8625 20.1152 34.9516 20.1152 35.0766Z" fill="#BFBFBF" stroke="#BFBFBF" stroke-width="3"/>
<path d="M20.1152 26.931C20.1152 27.056 20.0165 27.1451 19.9092 27.1451C19.8018 27.1451 19.7031 27.056 19.7031 26.931C19.7031 26.8059 19.8018 26.7169 19.9092 26.7169C20.0165 26.7169 20.1152 26.8059 20.1152 26.931Z" fill="#BFBFBF" stroke="#BFBFBF" stroke-width="3"/>
<path d="M20.3418 18.7878C20.3418 18.9128 20.2431 19.0019 20.1357 19.0019C20.0284 19.0019 19.9297 18.9128 19.9297 18.7878C19.9297 18.6629 20.0284 18.5738 20.1357 18.5738C20.2431 18.5738 20.3418 18.6629 20.3418 18.7878Z" fill="#BFBFBF" stroke="#BFBFBF" stroke-width="3"/>
<path d="M28.4512 18.7878C28.4512 18.9128 28.3525 19.0019 28.2451 19.0019C28.1377 19.0019 28.0391 18.9128 28.0391 18.7878C28.0391 18.6629 28.1377 18.5738 28.2451 18.5738C28.3525 18.5738 28.4512 18.6629 28.4512 18.7878Z" fill="#BFBFBF" stroke="#BFBFBF" stroke-width="3"/>
<path d="M36.334 18.7881C36.334 18.9131 36.2353 19.0022 36.1279 19.0022C36.0206 19.0022 35.9219 18.9131 35.9219 18.7881C35.9219 18.6631 36.0206 18.574 36.1279 18.574C36.2353 18.574 36.334 18.6631 36.334 18.7881Z" fill="#BFBFBF" stroke="#BFBFBF" stroke-width="3"/>
<path d="M36.5459 46.0072C42.3185 46.0072 46.998 41.3061 46.998 35.5059C46.998 29.7056 42.3185 25.0045 36.5459 25.0045C30.7734 25.0045 26.0938 29.7056 26.0938 35.5059C26.0938 41.3061 30.7734 46.0072 36.5459 46.0072Z" stroke="#BFBFBF" stroke-width="3" stroke-miterlimit="10"/>
<path d="M36.1797 32.735V36.8073H40.2328" stroke="#BFBFBF" stroke-width="3" stroke-linecap="round" stroke-linejoin="round"/>
</svg>
