<svg width="15" height="13" viewBox="0 0 15 13" fill="none" xmlns="http://www.w3.org/2000/svg">
<g id="Group">
<path id="Vector" d="M14.0625 12.3333C14.0625 12.3333 15 12.3333 15 11.3056C15 10.2778 14.0625 7.19444 10.3125 7.19444C6.5625 7.19444 5.625 10.2778 5.625 11.3056C5.625 12.3333 6.5625 12.3333 6.5625 12.3333H14.0625ZM6.58312 11.3056C6.5762 11.3045 6.56932 11.3031 6.5625 11.3014C6.56344 11.0301 6.71906 10.2428 7.275 9.53367C7.7925 8.86869 8.70187 8.22222 10.3125 8.22222C11.9222 8.22222 12.8316 8.86972 13.35 9.53367C13.9059 10.2428 14.0606 11.0311 14.0625 11.3014L14.055 11.3035C14.0506 11.3043 14.0463 11.305 14.0419 11.3056H6.58312ZM10.3125 5.13889C10.8098 5.13889 11.2867 4.92232 11.6383 4.53683C11.99 4.15134 12.1875 3.6285 12.1875 3.08333C12.1875 2.53817 11.99 2.01533 11.6383 1.62984C11.2867 1.24434 10.8098 1.02778 10.3125 1.02778C9.81522 1.02778 9.33831 1.24434 8.98668 1.62984C8.63504 2.01533 8.4375 2.53817 8.4375 3.08333C8.4375 3.6285 8.63504 4.15134 8.98668 4.53683C9.33831 4.92232 9.81522 5.13889 10.3125 5.13889ZM13.125 3.08333C13.125 3.48824 13.0523 3.88919 12.9109 4.26327C12.7696 4.63736 12.5624 4.97727 12.3012 5.26358C12.0401 5.54989 11.73 5.77701 11.3888 5.93196C11.0476 6.08691 10.6818 6.16667 10.3125 6.16667C9.94316 6.16667 9.57743 6.08691 9.2362 5.93196C8.89497 5.77701 8.58493 5.54989 8.32376 5.26358C8.0626 4.97727 7.85543 4.63736 7.71409 4.26327C7.57275 3.88919 7.5 3.48824 7.5 3.08333C7.5 2.26558 7.79632 1.48132 8.32376 0.903088C8.85121 0.32485 9.56658 0 10.3125 0C11.0584 0 11.7738 0.32485 12.3012 0.903088C12.8287 1.48132 13.125 2.26558 13.125 3.08333ZM6.5025 7.48222C6.12748 7.35276 5.74091 7.26766 5.34937 7.22836C5.12937 7.20543 4.90849 7.19411 4.6875 7.19444C0.9375 7.19444 0 10.2778 0 11.3056C0 11.9911 0.312187 12.3333 0.9375 12.3333H4.89C4.75102 12.0125 4.68171 11.6607 4.6875 11.3056C4.6875 10.2675 5.04094 9.20683 5.70938 8.32089C5.93719 8.01872 6.2025 7.73608 6.5025 7.48222ZM4.6125 8.22222C4.05764 9.1362 3.75791 10.2077 3.75 11.3056H0.9375C0.9375 11.0383 1.09125 10.2469 1.65 9.53367C2.16094 8.88 3.04875 8.24278 4.6125 8.22325V8.22222ZM1.40625 3.59722C1.40625 2.77947 1.70257 1.99521 2.23001 1.41698C2.75746 0.838739 3.47283 0.513889 4.21875 0.513889C4.96467 0.513889 5.68004 0.838739 6.20749 1.41698C6.73493 1.99521 7.03125 2.77947 7.03125 3.59722C7.03125 4.41497 6.73493 5.19923 6.20749 5.77747C5.68004 6.35571 4.96467 6.68056 4.21875 6.68056C3.47283 6.68056 2.75746 6.35571 2.23001 5.77747C1.70257 5.19923 1.40625 4.41497 1.40625 3.59722ZM4.21875 1.54167C3.72147 1.54167 3.24456 1.75823 2.89292 2.14372C2.54129 2.52922 2.34375 3.05206 2.34375 3.59722C2.34375 4.14239 2.54129 4.66523 2.89292 5.05072C3.24456 5.43621 3.72147 5.65278 4.21875 5.65278C4.71603 5.65278 5.19294 5.43621 5.54458 5.05072C5.89621 4.66523 6.09375 4.14239 6.09375 3.59722C6.09375 3.05206 5.89621 2.52922 5.54458 2.14372C5.19294 1.75823 4.71603 1.54167 4.21875 1.54167Z" fill="white"/>
</g>
</svg>
