<?xml version="1.0" encoding="utf-8"?>
<!-- Generator: Adobe Illustrator 24.2.0, SVG Export Plug-In . SVG Version: 6.00 Build 0)  -->
<svg version="1.1" id="Layer_1" xmlns="http://www.w3.org/2000/svg" xmlns:xlink="http://www.w3.org/1999/xlink" x="0px" y="0px"
	 viewBox="0 0 24 24" style="enable-background:new 0 0 24 24;" xml:space="preserve">
<style type="text/css">
	.st0{fill:none;stroke:#BFBFBF;}
</style>
<path class="st0" d="M3.4,7.3c0-2.3,1.8-4.1,3.9-4.1c2.1,0,3.9,1.8,3.9,4.1c0,2.3-1.8,4.1-3.9,4.1C5.2,11.5,3.4,9.6,3.4,7.3z"/>
<path class="st0" d="M14.9,4.9c0.6-0.7,1.4-1,2.3-1l0,0c1.8,0,3.2,1.5,3.3,3.5c0,0.9-0.3,1.8-0.9,2.5l0,0 M14.9,4.9
	C14.3,5.5,14,6.4,14,7.3 M14.9,9.8c0.6,0.7,1.4,1,2.3,1h0c0.9,0,1.7-0.4,2.3-1.1 M14.9,9.8c-0.6-0.7-1-1.5-1-2.5"/>
<path class="st0" d="M17.4,12.6c3.4,0,6.1,2.7,6.1,6.1v0.9 M15.8,17c-0.4-1.1-1.1-2-1.9-2.8c-0.1-0.1-0.3-0.3-0.4-0.4
	c1-0.8,2.3-1.2,3.6-1.2h0.4 M15.8,17c0.4,0.8,0.6,1.7,0.7,2.5h7.1"/>
<path class="st0" d="M14,20.1L14,20.1c0,0.1,0,0.3,0,0.4v0.3H0.5v-0.3c0-3.6,2.9-6.6,6.6-6.6h0.4c1.5,0,2.8,0.5,3.9,1.3v0
	C12.9,16.3,13.9,18.1,14,20.1z"/>
</svg>
