<svg width="50" height="50" viewBox="0 0 50 50" fill="none" xmlns="http://www.w3.org/2000/svg">
<g clip-path="url(#clip0_2267_111577)">
<path d="M7.53906 15.6764C7.53906 11.0853 11.043 7.5 15.1654 7.5C19.2879 7.5 22.7919 11.0853 22.7919 15.6764C22.7919 20.2674 19.2879 23.8527 15.1654 23.8527C11.043 23.8527 7.53906 20.2674 7.53906 15.6764Z" stroke="#BFBFBF" stroke-width="3"/>
<path d="M31.4028 10.91L31.4027 10.9101C30.2233 12.1951 29.5712 13.9009 29.5862 15.7286L31.4028 10.91ZM31.4028 10.91C32.6 9.6053 34.1799 8.89963 35.8612 8.88482L35.9142 8.88464C39.3051 8.88464 42.2235 11.8179 42.2549 15.624C42.27 17.4519 41.6178 19.1576 40.4384 20.4427L40.4384 20.4427M31.4028 10.91L40.4384 20.4427M40.4384 20.4427C39.2411 21.7474 37.6612 22.4531 35.98 22.468L35.926 22.4681C34.2627 22.4681 32.6897 21.7897 31.482 20.5166L40.4384 20.4427ZM31.4819 20.5165C30.2815 19.251 29.6013 17.5563 29.5862 15.7286L31.4819 20.5165Z" stroke="#BFBFBF" stroke-width="3"/>
<path d="M36.2988 27.0522H35.541C33.0186 27.0522 30.6738 27.8212 28.7255 29.1392C28.8711 29.276 29.0147 29.4153 29.1564 29.557C30.9116 31.3123 32.2922 33.3606 33.2564 35.6406L36.2988 27.0522ZM36.2988 27.0522C43.0232 27.0522 48.4961 32.5253 48.4961 39.2485V40.6655M36.2988 27.0522L48.4961 40.6655M48.4961 40.6655H34.6107C34.3921 38.9379 33.9395 37.255 33.2566 35.6409L48.4961 40.6655Z" stroke="#BFBFBF" stroke-width="3"/>
<path d="M28.8105 42.2585L28.8107 42.2609C28.8281 42.5353 28.8369 42.8131 28.8369 43.0933V43.3394H1.5V43.0933C1.5 35.7957 7.41532 29.8805 14.7129 29.8804C14.7129 29.8804 14.7129 29.8804 14.7129 29.8804H15.625C18.5832 29.8804 21.3099 30.8506 23.5099 32.4903L23.51 32.4904C26.5382 34.7469 28.5625 38.2636 28.8105 42.2585Z" stroke="#BFBFBF" stroke-width="3"/>
</g>
<defs>
<clipPath id="clip0_2267_111577">
<rect width="50" height="50" fill="white"/>
</clipPath>
</defs>
</svg>
