<svg width="50" height="50" viewBox="0 0 50 50" fill="none" xmlns="http://www.w3.org/2000/svg">
<path d="M15.9749 22.7622C20.6036 22.7622 24.356 19.0099 24.356 14.3811C24.356 9.75236 20.6036 6 15.9749 6C11.3461 6 7.59375 9.75236 7.59375 14.3811C7.59375 19.0099 11.3461 22.7622 15.9749 22.7622Z" stroke="#BFBFBF" stroke-width="3" stroke-miterlimit="10"/>
<path d="M37.2358 22.5504C40.5632 22.5504 43.2606 19.853 43.2606 16.5255C43.2606 13.1981 40.5632 10.5007 37.2358 10.5007C33.9083 10.5007 31.2109 13.1981 31.2109 16.5255C31.2109 19.853 33.9083 22.5504 37.2358 22.5504Z" stroke="#BFBFBF" stroke-width="3" stroke-miterlimit="10"/>
<path d="M26.7987 29.6617H2.17736C2.17736 29.6617 -0.616351 43.1929 15.9719 43.1929C15.9719 43.1929 24.005 43.6303 26.7987 38.4803" stroke="#BFBFBF" stroke-width="3" stroke-miterlimit="10"/>
<path d="M29.25 29.6617H48.6272" stroke="#BFBFBF" stroke-width="3" stroke-miterlimit="10"/>
<path d="M29.25 35.7715H48.6272" stroke="#BFBFBF" stroke-width="3" stroke-miterlimit="10"/>
<path d="M29.25 41.8856H48.6272" stroke="#BFBFBF" stroke-width="3" stroke-miterlimit="10"/>
</svg>
