<svg width="53" height="53" viewBox="0 0 53 53" fill="none" xmlns="http://www.w3.org/2000/svg">
<path d="M26.9336 0C41.5687 0 52.9982 12.2984 52.9982 26.9336C53.0386 30.3676 52.3919 33.7751 51.0964 36.9556C49.8008 40.1362 47.8824 43.0256 45.454 45.454C43.0256 47.8824 40.1362 49.8008 36.9556 51.0964C33.7751 52.3919 30.3676 53.0386 26.9336 52.9982C12.2984 52.9982 0 41.5687 0 26.9336C0.0812825 19.8156 2.94502 13.012 7.97853 7.97853C13.012 2.94502 19.8156 0.0812825 26.9336 0V0Z" fill="black"/>
<path d="M14.4324 48C11.9844 48 10 46.0156 10 43.5676V43.5676C10 38.2188 17.673 33.8177 27 33.8177C36.327 33.8177 44 38.2178 44 43.5676V43.5676C44 46.0156 42.0156 48 39.5676 48H14.4324ZM17.5 18.75C17.5 16.8216 18.0865 14.9366 19.1853 13.3332C20.2841 11.7298 21.8459 10.4801 23.6732 9.74218C25.5004 9.00422 27.5111 8.81114 29.4509 9.18735C31.3907 9.56355 33.1725 10.4922 34.5711 11.8557C35.9696 13.2193 36.922 14.9566 37.3079 16.8479C37.6937 18.7392 37.4957 20.6996 36.7388 22.4812C35.9819 24.2627 34.7002 25.7855 33.0557 26.8568C31.4112 27.9282 29.4778 28.5 27.5 28.5C24.8478 28.5 22.3043 27.4728 20.4289 25.6443C18.5536 23.8158 17.5 21.3359 17.5 18.75Z" fill="white"/>
</svg>
