<svg width="53" height="53" viewBox="0 0 53 53" fill="none" xmlns="http://www.w3.org/2000/svg">
<path d="M8.68563 8.68563C13.5331 3.83821 20.0846 1.07977 26.9393 1C40.9772 1.0032 51.9982 12.8094 51.9982 26.9336H51.9982L51.9983 26.9453C52.0371 30.2461 51.4155 33.5213 50.1702 36.5784C48.925 39.6355 47.081 42.4127 44.7469 44.7469C42.4127 47.081 39.6355 48.925 36.5784 50.1702C33.5213 51.4155 30.2461 52.0371 26.9453 51.9983L26.9453 51.9982H26.9336C12.8094 51.9982 1.0032 40.9772 1 26.9393C1.07977 20.0846 3.83821 13.5331 8.68563 8.68563Z" fill="#101010" stroke="#D6AA68" stroke-width="2"/>
<path d="M34.3068 17.7897C34.3293 19.1596 33.9436 20.5053 33.1989 21.6553C32.4542 22.8053 31.3841 23.7077 30.1248 24.2475C28.8656 24.7874 27.4742 24.9403 26.1277 24.6868C24.7813 24.4333 23.5407 23.7849 22.564 22.8241C21.5873 21.8633 20.9186 20.6336 20.643 19.2915C20.3675 17.9494 20.4975 16.5556 21.0166 15.2877C21.5357 14.0198 22.4204 12.935 23.558 12.1715C24.6957 11.4079 26.0347 11.0002 27.4048 11.0002C29.2204 10.9854 30.9675 11.6923 32.2619 12.9656C33.5562 14.2389 34.2918 15.9742 34.3068 17.7897Z" fill="#D6AA68"/>
<path d="M22.6234 24.7725C24.0202 25.7659 25.6917 26.2997 27.4058 26.2997C29.1198 26.2997 30.7913 25.7659 32.1881 24.7725C32.1881 24.7725 39.6806 27.3743 39.8079 36H15.0036C15.0036 36 14.5892 28.285 22.6234 24.7725Z" fill="#D6AA68"/>
</svg>
