<svg width="24" height="23" viewBox="0 0 24 23" fill="none" xmlns="http://www.w3.org/2000/svg">
<path d="M23.7592 10.9187L22.0442 9.27662L12.607 0.240531C12.272 -0.0801769 11.7289 -0.0801769 11.3939 0.240531L1.95668 9.27662L0.240844 10.9196C-0.0883187 11.2459 -0.0789184 11.7659 0.261906 12.0811C0.594387 12.3886 1.12146 12.3886 1.45394 12.0811L1.70443 11.8396V22.1785C1.70443 22.6322 2.08854 23 2.56237 23H21.4368C21.9106 23 22.2947 22.6322 22.2947 22.1785V11.8396L22.5461 12.0803C22.8869 12.3955 23.43 12.3864 23.7592 12.0601C24.0803 11.7418 24.0803 11.2371 23.7592 10.9187ZM14.5734 21.3571H9.42582V14.7853H14.5734V21.3571ZM20.5788 21.3571H16.2892V13.9639C16.2892 13.5102 15.9051 13.1424 15.4313 13.1424H8.56788C8.09404 13.1424 7.70993 13.5102 7.70993 13.9639V21.3571H3.42032V10.1967L11.9996 1.98202L20.5788 10.1967V21.3571Z" fill="#D6AA68"/>
</svg>
