<svg width="50" height="50" viewBox="0 0 50 50" fill="none" xmlns="http://www.w3.org/2000/svg">
<g clip-path="url(#clip0_2297_127927)">
<path d="M29.765 17.7216H48V48.2062H2V17.7216H20.3744V14.7288H29.6981L29.765 17.7216Z" stroke="#BFBFBF" stroke-width="3" stroke-miterlimit="10"/>
<path d="M20.3672 17.7217V21.3271C20.3672 21.3271 22.2061 24.2527 24.9924 24.2527C27.7786 24.2527 29.8906 21.3271 29.8906 21.3271L29.7569 17.7217" stroke="#BFBFBF" stroke-width="3" stroke-miterlimit="10"/>
<path d="M20.5294 21.5726C20.5294 21.5726 16.5391 21.6952 16.5391 25.0112C16.5391 28.3272 20.2396 28.6337 20.2396 28.6337H30.7002C30.7002 28.6337 33.6595 28.0987 33.6595 24.5765C33.6595 24.5765 33.888 21.5726 29.6915 21.5726" stroke="#BFBFBF" stroke-width="3" stroke-miterlimit="10"/>
<path d="M7.34375 33.1534L11.8854 41.9803L16.8895 33.1534" stroke="#BFBFBF" stroke-width="3" stroke-miterlimit="10"/>
<path d="M24.5126 6.28011L29.1382 2L37.6761 2.17276L29.6844 14.7289L21.8877 2H13.6562L20.3606 14.7289" stroke="#BFBFBF" stroke-width="3" stroke-miterlimit="10"/>
<path d="M24.4453 35.4829H31.4221" stroke="#BFBFBF" stroke-width="3" stroke-miterlimit="10"/>
<path d="M24.4453 39.1946H40.0332" stroke="#BFBFBF" stroke-width="3" stroke-miterlimit="10"/>
<path d="M24.0547 43.0735H34.0574" stroke="#BFBFBF" stroke-width="3" stroke-miterlimit="10"/>
</g>
<defs>
<clipPath id="clip0_2297_127927">
<rect width="50" height="50" fill="white"/>
</clipPath>
</defs>
</svg>
