<svg width="50" height="50" viewBox="0 0 50 50" fill="none" xmlns="http://www.w3.org/2000/svg">
<g clip-path="url(#clip0_2297_128267)">
<path d="M25.409 0C39.2158 0 49.9983 11.6023 49.9983 25.409C50.0364 28.6487 49.4264 31.8633 48.2041 34.8638C46.9819 37.8643 45.1721 40.5902 42.8811 42.8811C40.5902 45.1721 37.8643 46.9819 34.8638 48.2041C31.8633 49.4264 28.6487 50.0364 25.409 49.9983C11.6023 49.9983 0 39.2158 0 25.409C0.0766816 18.6939 2.77832 12.2755 7.52691 7.52691C12.2755 2.77832 18.6939 0.0766816 25.409 0V0Z" fill="black"/>
<path d="M13.619 45.283C11.3096 45.283 9.4375 43.4109 9.4375 41.1016V41.1016C9.4375 36.0555 16.6762 31.9035 25.4752 31.9035C34.2743 31.9035 41.513 36.0546 41.513 41.1016V41.1016C41.513 43.4109 39.6409 45.283 37.3315 45.283H13.619ZM16.513 17.6887C16.513 15.8695 17.0663 14.0911 18.1029 12.5785C19.1395 11.0659 20.6129 9.88695 22.3367 9.19077C24.0605 8.49459 25.9574 8.31243 27.7874 8.66734C29.6174 9.02226 31.2984 9.89829 32.6177 11.1847C33.9371 12.471 34.8356 14.11 35.1996 15.8943C35.5636 17.6785 35.3768 19.5279 34.6628 21.2087C33.9487 22.8894 32.7396 24.326 31.1882 25.3367C29.6368 26.3474 27.8128 26.8868 25.9469 26.8868C23.4449 26.8868 21.0453 25.9177 19.2761 24.1928C17.5069 22.4678 16.513 20.1282 16.513 17.6887Z" fill="white"/>
</g>
<defs>
<clipPath id="clip0_2297_128267">
<rect width="50" height="50" fill="white"/>
</clipPath>
</defs>
</svg>
