<svg width="50" height="50" viewBox="0 0 50 50" fill="none" xmlns="http://www.w3.org/2000/svg">
<g clip-path="url(#clip0_2297_127951)">
<path d="M43.5842 27.2202C43.5847 31.331 42.3654 35.3495 40.0807 38.7676C37.7961 42.1857 34.5485 44.8498 30.7489 46.4229C26.9493 47.996 22.7683 48.4075 18.7347 47.6053C14.7011 46.8032 10.9961 44.8233 8.08831 41.9163C5.18052 39.0092 3.20057 35.3055 2.39888 31.2737C1.59718 27.2418 2.00974 23.0628 3.58441 19.2653C5.15907 15.4678 7.82509 12.2223 11.2453 9.93944C14.6654 7.65654 18.6861 6.43873 22.7988 6.44004V27.2202H43.5842Z" stroke="#242424" stroke-width="3" stroke-miterlimit="10"/>
<path d="M28.3125 1V21.943H49.0013C49.0013 21.943 49.8023 4.02957 28.3125 1Z" fill="#242424" stroke="#242424"/>
</g>
<defs>
<clipPath id="clip0_2297_127951">
<rect width="50" height="50" fill="white"/>
</clipPath>
</defs>
</svg>
