<svg width="50" height="50" viewBox="0 0 50 50" fill="none" xmlns="http://www.w3.org/2000/svg">
<path d="M20.375 42.6663L20.3719 43.5604C20.3018 43.3479 20.25 43.0642 20.25 42.6852C20.25 41.2943 20.9269 38.1965 23.0567 35.4725C25.1255 32.8265 28.6015 30.4815 34.375 30.4815C40.1485 30.4815 43.6245 32.8265 45.6933 35.4725C47.8231 38.1965 48.5 41.2943 48.5 42.6852C48.5 43.0587 48.4497 43.3396 48.3811 43.5511L48.375 42.6611C48.3665 41.4472 47.75 38.4939 45.6814 35.8546C43.6782 33.2898 40.2166 30.9074 34.375 30.9074C28.5322 30.9074 25.0692 33.2849 23.0677 35.8558C21.0015 38.4927 20.3792 41.4426 20.375 42.6663ZM20.5199 43.8864C20.5185 43.8842 20.5171 43.8819 20.5158 43.8796L21.5136 44.1273C21.5815 44.1442 21.6502 44.1579 21.7196 44.1683L21.831 44.1852H21.9438H46.8062H46.9017L46.9965 44.1731C47.0391 44.1676 47.0815 44.161 47.1237 44.1531L47.1857 44.1417L47.2464 44.125L47.2714 44.1181L48.2518 43.8495C48.2445 43.8623 48.2373 43.8746 48.2301 43.8864C48.0971 44.1051 47.9194 44.2563 47.7165 44.3675C47.5052 44.4833 47.2784 44.5483 47.0937 44.582C47.0045 44.5983 46.9339 44.6057 46.8922 44.609C46.8764 44.6102 46.8652 44.6108 46.8593 44.6111H21.8907C21.8887 44.611 21.8862 44.6109 21.883 44.6107C21.8768 44.6104 21.8683 44.6098 21.8578 44.609C21.8161 44.6057 21.7455 44.5983 21.6563 44.582C21.4716 44.5483 21.2448 44.4833 21.0335 44.3675C20.8306 44.2563 20.6529 44.1051 20.5199 43.8864ZM14.125 42.6732C14.1152 43.3249 14.1698 43.9745 14.287 44.6111H3.125C2.35075 44.6111 2.03624 44.4055 1.88907 44.2442C1.87311 44.2267 1.85673 44.2071 1.84016 44.1852H3.125H12.5H13.9892L14 42.696C14.0224 39.5835 14.8034 36.5475 16.2461 33.9001L16.4801 33.8972C14.939 36.6245 14.1272 39.6659 14.125 42.6732ZM4.30669 35.4725C6.27244 32.9583 9.50864 30.7159 14.779 30.4987L14.5117 30.9389C9.33313 31.2199 6.19143 33.4592 4.31917 35.8539C2.24165 38.506 1.625 41.4727 1.625 42.6852V43.7306C1.55194 43.4838 1.5 43.1461 1.5 42.6852C1.5 41.2943 2.17693 38.1965 4.30669 35.4725ZM16.875 32.4074V30.5196C17.1422 30.5364 17.4092 30.5587 17.6757 30.5865L17.6815 30.587C18.0335 30.6224 18.3843 30.6699 18.7335 30.7296C18.4177 31.0881 18.1176 31.4565 17.8335 31.8333C17.4913 32.2869 17.1716 32.7535 16.875 33.231V32.4108V32.4074ZM17.8312 29.0948L17.8312 29.0948L17.8312 29.0948ZM34.375 23.6296C36.4773 23.6296 38.4621 22.7129 39.9026 21.1336C41.3389 19.559 42.125 17.4506 42.125 15.2778C42.125 13.105 41.3389 10.9965 39.9026 9.42192C38.4621 7.8427 36.4773 6.92593 34.375 6.92593C32.2727 6.92593 30.2879 7.8427 28.8474 9.42192C27.4111 10.9965 26.625 13.105 26.625 15.2778C26.625 17.4506 27.4111 19.559 28.8474 21.1336C30.2879 22.7129 32.2727 23.6296 34.375 23.6296ZM42.25 15.2778C42.25 16.4487 42.0395 17.6054 41.6332 18.6807C41.2269 19.756 40.6345 20.7246 39.8959 21.5344C39.1575 22.3439 38.2885 22.9778 37.3425 23.4074C36.3969 23.8368 35.389 24.0556 34.375 24.0556C33.361 24.0556 32.3531 23.8368 31.4075 23.4074C30.4615 22.9778 29.5925 22.3439 28.8541 21.5344C28.1155 20.7246 27.5231 19.756 27.1168 18.6807C26.7105 17.6054 26.5 16.4487 26.5 15.2778C26.5 12.9075 27.3601 10.659 28.8541 9.02116C30.3438 7.38795 32.3332 6.5 34.375 6.5C36.4168 6.5 38.4062 7.38795 39.8959 9.02116C41.3899 10.659 42.25 12.9075 42.25 15.2778ZM6.1875 16.9907C6.1875 14.6205 7.04764 12.3719 8.54159 10.7341C10.0313 9.10092 12.0207 8.21296 14.0625 8.21296C16.1043 8.21296 18.0937 9.10092 19.5834 10.7341C21.0774 12.3719 21.9375 14.6205 21.9375 16.9907C21.9375 19.361 21.0774 21.6095 19.5834 23.2474C18.0937 24.8806 16.1043 25.7685 14.0625 25.7685C12.0207 25.7685 10.0313 24.8806 8.54159 23.2474C7.04764 21.6095 6.1875 19.361 6.1875 16.9907ZM14.0625 8.63889C11.9602 8.63889 9.97537 9.55566 8.53487 11.1349C7.09856 12.7095 6.3125 14.8179 6.3125 16.9907C6.3125 19.1636 7.09856 21.272 8.53487 22.8466C9.97537 24.4258 11.9602 25.3426 14.0625 25.3426C16.1648 25.3426 18.1496 24.4258 19.5901 22.8466C21.0264 21.272 21.8125 19.1636 21.8125 16.9907C21.8125 14.8179 21.0264 12.7095 19.5901 11.1349C18.1496 9.55566 16.1648 8.63889 14.0625 8.63889Z" fill="#242424" stroke="#242424" stroke-width="3"/>
</svg>
